<?xml version="1.0" standalone="no"?>
<!DOCTYPE svg PUBLIC "-//W3C//DTD SVG 20010904//EN"
 "http://www.w3.org/TR/2001/REC-SVG-20010904/DTD/svg10.dtd">
<svg version="1.0" xmlns="http://www.w3.org/2000/svg"
 width="512.000000pt" height="256.000000pt" viewBox="0 0 512.000000 256.000000"
 preserveAspectRatio="xMidYMid meet">

<g transform="translate(0.000000,256.000000) scale(0.100000,-0.100000)"
fill="#000000" stroke="none">
<path d="M2365 1883 c-28 -10 -66 -34 -87 -55 -67 -67 -68 -77 -68 -645 l0
-503 115 0 115 0 0 290 0 290 90 0 90 0 0 95 0 95 -84 0 -85 0 -7 47 c-10 67
10 163 38 187 19 15 35 17 89 14 l66 -5 7 94 c4 52 4 98 1 101 -4 4 -57 8
-118 9 -84 2 -124 -2 -162 -14z"/>
<path d="M1078 1789 l-118 -80 0 -65 0 -64 120 0 120 0 0 145 c0 80 -1 145 -2
145 -2 0 -56 -37 -120 -81z"/>
<path d="M1685 1461 c-39 -10 -75 -29 -102 -54 l-23 -20 0 31 0 32 -115 0
-115 0 0 -385 0 -385 119 0 119 0 4 248 c3 223 5 250 22 275 25 36 66 57 113
57 51 0 83 -18 107 -60 19 -32 21 -54 24 -277 l4 -243 119 0 119 0 0 208 c-1
397 -26 492 -145 555 -30 16 -62 21 -130 23 -49 2 -103 0 -120 -5z"/>
<path d="M2948 1451 c-206 -68 -320 -246 -287 -451 35 -221 207 -350 451 -338
194 10 329 105 384 272 22 66 23 185 1 256 -34 113 -134 215 -252 256 -76 26
-226 29 -297 5z m249 -223 c117 -77 104 -282 -21 -339 -95 -43 -209 -11 -256
72 -44 78 -29 190 33 250 59 57 172 65 244 17z"/>
<path d="M3967 1450 c-31 -10 -68 -25 -82 -34 -32 -21 -35 -20 -35 9 l0 25
-120 0 -120 0 0 -385 0 -385 119 0 119 0 4 223 c4 184 8 229 22 265 36 84 114
121 224 105 l62 -9 0 103 0 103 -67 -1 c-38 0 -94 -8 -126 -19z"/>
<path d="M960 1065 l0 -385 120 0 120 0 0 385 0 385 -120 0 -120 0 0 -385z"/>
</g>
</svg>
